<svg xmlns="http://www.w3.org/2000/svg" width="90" height="18" viewBox="0 0 90 18" fill="black">
  <path d="M7.5 0L9.27 5.4H15L10.38 8.7L12.15 14.1L7.5 10.8L2.85 14.1L4.62 8.7L0 5.4H5.73L7.5 0Z"></path>
  <path d="M25.5 0L27.27 5.4H33L28.38 8.7L30.15 14.1L25.5 10.8L20.85 14.1L22.62 8.7L18 5.4H23.73L25.5 0Z"></path>
  <path d="M43.5 0L45.27 5.4H51L46.38 8.7L48.15 14.1L43.5 10.8L38.85 14.1L40.62 8.7L36 5.4H41.73L43.5 0Z"></path>
  <path d="M61.5 0L63.27 5.4H69L64.38 8.7L66.15 14.1L61.5 10.8L56.85 14.1L58.62 8.7L54 5.4H59.73L61.5 0Z"></path>
  <path d="M79.5 0L81.27 5.4H87L82.38 8.7L84.15 14.1L79.5 10.8L74.85 14.1L76.62 8.7L72 5.4H77.73L79.5 0Z"></path>
</svg>
