<svg width="83" height="14" viewBox="0 0 83 14" fill="none" xmlns="http://www.w3.org/2000/svg">
<path d="M7.03834 1.10996C7.20914 0.699318 7.79086 0.699318 7.96166 1.10996L9.23424 4.16962C9.30624 4.34273 9.46905 4.46102 9.65594 4.476L12.9591 4.74081C13.4024 4.77635 13.5822 5.32961 13.2444 5.61894L10.7278 7.77472C10.5854 7.8967 10.5232 8.08809 10.5667 8.27047L11.3356 11.4938C11.4388 11.9264 10.9681 12.2683 10.5886 12.0365L7.76063 10.3092C7.60062 10.2115 7.39938 10.2115 7.23937 10.3092L4.41142 12.0365C4.03187 12.2683 3.56124 11.9264 3.66443 11.4938L4.43331 8.27047C4.47682 8.08809 4.41463 7.8967 4.27224 7.77472L1.75558 5.61894C1.41781 5.32961 1.59758 4.77635 2.0409 4.74081L5.34406 4.476C5.53095 4.46102 5.69376 4.34273 5.76576 4.16962L7.03834 1.10996Z" fill="#FDB022"/>
<path d="M24.0383 1.10996C24.2091 0.699318 24.7909 0.699318 24.9617 1.10996L26.2342 4.16962C26.3062 4.34273 26.469 4.46102 26.6559 4.476L29.9591 4.74081C30.4024 4.77635 30.5822 5.32961 30.2444 5.61894L27.7278 7.77472C27.5854 7.8967 27.5232 8.08809 27.5667 8.27047L28.3356 11.4938C28.4388 11.9264 27.9681 12.2683 27.5886 12.0365L24.7606 10.3092C24.6006 10.2115 24.3994 10.2115 24.2394 10.3092L21.4114 12.0365C21.0319 12.2683 20.5612 11.9264 20.6644 11.4938L21.4333 8.27047C21.4768 8.08809 21.4146 7.8967 21.2722 7.77472L18.7556 5.61894C18.4178 5.32961 18.5976 4.77635 19.0409 4.74081L22.3441 4.476C22.531 4.46102 22.6938 4.34273 22.7658 4.16962L24.0383 1.10996Z" fill="#FDB022"/>
<path d="M41.0383 1.10996C41.2091 0.699318 41.7909 0.699318 41.9617 1.10996L43.2342 4.16962C43.3062 4.34273 43.469 4.46102 43.6559 4.476L46.9591 4.74081C47.4024 4.77635 47.5822 5.32961 47.2444 5.61894L44.7278 7.77472C44.5854 7.8967 44.5232 8.08809 44.5667 8.27047L45.3356 11.4938C45.4388 11.9264 44.9681 12.2683 44.5886 12.0365L41.7606 10.3092C41.6006 10.2115 41.3994 10.2115 41.2394 10.3092L38.4114 12.0365C38.0319 12.2683 37.5612 11.9264 37.6644 11.4938L38.4333 8.27047C38.4768 8.08809 38.4146 7.8967 38.2722 7.77472L35.7556 5.61894C35.4178 5.32961 35.5976 4.77635 36.0409 4.74081L39.3441 4.476C39.531 4.46102 39.6938 4.34273 39.7658 4.16962L41.0383 1.10996Z" fill="#FDB022"/>
<path d="M58.0383 1.10996C58.2091 0.699318 58.7909 0.699318 58.9617 1.10996L60.2342 4.16962C60.3062 4.34273 60.469 4.46102 60.6559 4.476L63.9591 4.74081C64.4024 4.77635 64.5822 5.32961 64.2444 5.61894L61.7278 7.77472C61.5854 7.8967 61.5232 8.08809 61.5667 8.27047L62.3356 11.4938C62.4388 11.9264 61.9681 12.2683 61.5886 12.0365L58.7606 10.3092C58.6006 10.2115 58.3994 10.2115 58.2394 10.3092L55.4114 12.0365C55.0319 12.2683 54.5612 11.9264 54.6644 11.4938L55.4333 8.27047C55.4768 8.08809 55.4146 7.8967 55.2722 7.77472L52.7556 5.61894C52.4178 5.32961 52.5976 4.77635 53.0409 4.74081L56.3441 4.476C56.531 4.46102 56.6938 4.34273 56.7658 4.16962L58.0383 1.10996Z" fill="#FDB022"/>
<path d="M75.0383 1.10996C75.2091 0.699318 75.7909 0.699318 75.9617 1.10996L77.2342 4.16962C77.3062 4.34273 77.469 4.46102 77.6559 4.476L80.9591 4.74081C81.4024 4.77635 81.5822 5.32961 81.2444 5.61894L78.7278 7.77472C78.5854 7.8967 78.5232 8.08809 78.5667 8.27047L79.3356 11.4938C79.4388 11.9264 78.9681 12.2683 78.5886 12.0365L75.7606 10.3092C75.6006 10.2115 75.3994 10.2115 75.2394 10.3092L72.4114 12.0365C72.0319 12.2683 71.5612 11.9264 71.6644 11.4938L72.4333 8.27047C72.4768 8.08809 72.4146 7.8967 72.2722 7.77472L69.7556 5.61894C69.4178 5.32961 69.5976 4.77635 70.0409 4.74081L73.3441 4.476C73.531 4.46102 73.6938 4.34273 73.7658 4.16962L75.0383 1.10996Z" fill="#FDB022"/>
</svg>
